<svg width="2000" height="3000" viewBox="0 0 2000 3000" fill="none" xmlns="http://www.w3.org/2000/svg">
<path d="M433 597L443 602.774L443 591.226L433 597ZM1515 597L1505 591.227L1505 602.774L1515 597ZM442 598L1506 598L1506 596L442 596L442 598Z" fill="#FF0000"/>
<path d="M84 733L94 738.774L94 727.226L84 733ZM1894 733L1884 727.227L1884 738.774L1894 733ZM93 734L1885 734L1885 732L93 732L93 734Z" fill="#FF0000"/>
<path d="M522 554L532 559.774L532 548.226L522 554ZM770 554L760 548.226L760 559.773L770 554ZM531 555L761 555L761 553L531 553L531 555Z" fill="#FF0000"/>
<path d="M416 248L410.226 258L421.774 258L416 248ZM416 431L421.773 421L410.226 421L416 431ZM415 257L415 422L417 422L417 257L415 257Z" fill="#FF0000"/>
<path d="M417 2516L411.226 2526L422.774 2526L417 2516ZM417 2706L422.773 2696L411.226 2696L417 2706ZM416 2525L416 2697L418 2697L418 2525L416 2525Z" fill="#FF0000"/>
<path d="M1694 2417L1688.23 2427L1699.77 2427L1694 2417ZM1694 2793L1699.77 2783L1688.23 2783L1694 2793ZM1693 2426L1693 2784L1695 2784L1695 2426L1693 2426Z" fill="#FF0000"/>
<path d="M1514 2461L1504 2455.23V2466.77L1514 2461ZM928 2461L938 2466.77V2455.23L928 2461ZM1505 2460H937V2462H1505V2460Z" fill="#FF0000"/>
<path d="M623 1698L617.226 1708L628.774 1708L623 1698ZM623 2516L628.773 2506L617.226 2506L623 2516ZM622 1707L622 2507L624 2507L624 1707L622 1707Z" fill="#FF0000"/>
<path d="M336 2505L330.226 2515L341.774 2515L336 2505ZM336 2706L341.774 2696L330.227 2696L336 2706ZM335 2514L335 2697L337 2697L337 2514L335 2514Z" fill="#FF0000"/>
<path d="M1500 402L1490 396.226V407.774L1500 402ZM1347 402L1357 407.774V396.226L1347 402ZM1491 401H1356V403H1491V401Z" fill="#FF0000"/>
<path d="M1491 797L1481 791.226V802.774L1491 797ZM1315 797L1325 802.774V791.226L1315 797ZM1482 796H1324V798H1482V796Z" fill="#FF0000"/>
<path d="M1089 1279L1079 1273.23V1284.77L1089 1279ZM889 1279L899 1284.77V1273.23L889 1279ZM1080 1278H898V1280H1080V1278Z" fill="#FF0000"/>
<path d="M1638 2948L1628 2942.23V2953.77L1638 2948ZM1513 2948L1523 2953.77V2942.23L1513 2948ZM1629 2947H1522V2949H1629V2947Z" fill="#FF0000"/>
<path d="M1133 1351L1123 1345.23V1356.77L1133 1351ZM845 1351L855 1356.77V1345.23L845 1351ZM1124 1350H854V1352H1124V1350Z" fill="#FF0000"/>
<path d="M1504 66.5L1494 60.7265V72.2735L1504 66.5ZM1398 66.5L1408 72.2735V60.7265L1398 66.5ZM1495 65.5L1407 65.5V67.5L1495 67.5V65.5Z" fill="#FF0000"/>
<path d="M1584 326L1589.77 316L1578.23 316L1584 326ZM1584 133L1578.23 143L1589.77 143L1584 133ZM1585 317L1585 142L1583 142L1583 317L1585 317Z" fill="#FF0000"/>
<path d="M1641 430L1646.77 420L1635.23 420L1641 430ZM1641 117L1635.23 127L1646.77 127L1641 117ZM1642 421L1642 126L1640 126L1640 421L1642 421Z" fill="#FF0000"/>
<path d="M1584 430L1589.77 420L1578.23 420L1584 430ZM1584 326L1578.23 336L1589.77 336L1584 326ZM1585 421L1585 335L1583 335L1583 421L1585 421Z" fill="#FF0000"/>
<path d="M339 222L333.226 232L344.774 232L339 222ZM339 281L344.774 271L333.226 271L339 281ZM338 231L338 272L340 272L340 231L338 231Z" fill="#FF0000"/>
</svg>
