<svg width="1810" height="2894" viewBox="0 0 1810 2894" fill="none" xmlns="http://www.w3.org/2000/svg">
<path d="M349 537L359 542.774L359 531.226L349 537ZM1431 537L1421 531.227L1421 542.774L1431 537ZM358 538L1422 538L1422 536L358 536L358 538Z" fill="#FF0000"/>
<path d="M0 673L10 678.774L10 667.226L0 673ZM1810 673L1800 667.227L1800 678.774L1810 673ZM9 674L1801 674L1801 672L9 672L9 674Z" fill="#FF0000"/>
<path d="M438 494L448 499.774L448 488.226L438 494ZM686 494L676 488.226L676 499.773L686 494ZM447 495L677 495L677 493L447 493L447 495Z" fill="#FF0000"/>
<path d="M332 188L326.226 198L337.774 198L332 188ZM332 371L337.773 361L326.226 361L332 371ZM331 197L331 362L333 362L333 197L331 197Z" fill="#FF0000"/>
<path d="M333 2456L327.226 2466L338.774 2466L333 2456ZM333 2646L338.773 2636L327.226 2636L333 2646ZM332 2465L332 2637L334 2637L334 2465L332 2465Z" fill="#FF0000"/>
<path d="M1610 2357L1604.23 2367L1615.77 2367L1610 2357ZM1610 2733L1615.77 2723L1604.23 2723L1610 2733ZM1609 2366L1609 2724L1611 2724L1611 2366L1609 2366Z" fill="#FF0000"/>
<path d="M1430 2401L1420 2395.23V2406.77L1430 2401ZM844 2401L854 2406.77V2395.23L844 2401ZM1421 2400H853V2402H1421V2400Z" fill="#FF0000"/>
<path d="M539 1638L533.226 1648L544.774 1648L539 1638ZM539 2456L544.773 2446L533.226 2446L539 2456ZM538 1647L538 2447L540 2447L540 1647L538 1647Z" fill="#FF0000"/>
<path d="M252 2445L246.226 2455L257.774 2455L252 2445ZM252 2646L257.774 2636L246.227 2636L252 2646ZM251 2454L251 2637L253 2637L253 2454L251 2454Z" fill="#FF0000"/>
<path d="M1416 342L1406 336.226V347.774L1416 342ZM1263 342L1273 347.774V336.226L1263 342ZM1407 341H1272V343H1407V341Z" fill="#FF0000"/>
<path d="M1407 737L1397 731.226V742.774L1407 737ZM1231 737L1241 742.774V731.226L1231 737ZM1398 736H1240V738H1398V736Z" fill="#FF0000"/>
<path d="M1005 1219L995 1213.23V1224.77L1005 1219ZM805 1219L815 1224.77V1213.23L805 1219ZM996 1218H814V1220H996V1218Z" fill="#FF0000"/>
<path d="M1554 2888L1544 2882.23V2893.77L1554 2888ZM1429 2888L1439 2893.77V2882.23L1429 2888ZM1545 2887H1438V2889H1545V2887Z" fill="#FF0000"/>
<path d="M1049 1291L1039 1285.23V1296.77L1049 1291ZM761 1291L771 1296.77V1285.23L761 1291ZM1040 1290H770V1292H1040V1290Z" fill="#FF0000"/>
<path d="M1420 6.5L1410 0.726497V12.2735L1420 6.5ZM1314 6.5L1324 12.2735V0.726497L1314 6.5ZM1411 5.5L1323 5.5V7.5L1411 7.5V5.5Z" fill="#FF0000"/>
<path d="M1500 266L1505.77 256L1494.23 256L1500 266ZM1500 73L1494.23 83L1505.77 83L1500 73ZM1501 257L1501 82L1499 82L1499 257L1501 257Z" fill="#FF0000"/>
<path d="M1557 370L1562.77 360L1551.23 360L1557 370ZM1557 57L1551.23 67L1562.77 67L1557 57ZM1558 361L1558 66L1556 66L1556 361L1558 361Z" fill="#FF0000"/>
<path d="M1500 370L1505.77 360L1494.23 360L1500 370ZM1500 266L1494.23 276L1505.77 276L1500 266ZM1501 361L1501 275L1499 275L1499 361L1501 361Z" fill="#FF0000"/>
<path d="M255 162L249.226 172L260.774 172L255 162ZM255 221L260.774 211L249.226 211L255 221ZM254 171L254 212L256 212L256 171L254 171Z" fill="#FF0000"/>
</svg>
