<svg width="2000" height="3000" viewBox="0 0 2000 3000" fill="none" xmlns="http://www.w3.org/2000/svg">
<path d="M433 596L1515 596" stroke="#FF0000"/>
<path d="M84 733L1894 733" stroke="#FF0000"/>
<path d="M522 554L770 554" stroke="#FF0000"/>
<path d="M416 248L416 431" stroke="#FF0000"/>
<path d="M750 870L750 1152" stroke="#FF0000"/>
<path d="M417 2516L417 2706" stroke="#FF0000"/>
<path d="M1694 2417L1694 2793" stroke="#FF0000"/>
<path d="M1514 2461H928" stroke="#DB00FF"/>
<path d="M624 1698L624 2516" stroke="#FF0000"/>
<path d="M336 2505L336 2706" stroke="#FF0000"/>
<path d="M1500 402H1347" stroke="#DB00FF"/>
<path d="M1491 797H1315" stroke="#DB00FF"/>
<path d="M1089 1279H889" stroke="#DB00FF"/>
<path d="M1638 2948H1513" stroke="#DB00FF" stroke-miterlimit="9.56677"/>
<path d="M1133 1351H845" stroke="#DB00FF"/>
<path d="M1504 66.5L1398 66.5" stroke="#FF0000"/>
<path d="M1584 326L1584 133" stroke="#FF0000"/>
<path d="M1641 430L1641 117" stroke="#FF0000"/>
<path d="M1584 430L1584 326" stroke="#FF0000"/>
<path d="M339 222L339 281" stroke="#FF0000"/>
</svg>
