<svg width="2000" height="3000" viewBox="0 0 2000 3000" fill="none" xmlns="http://www.w3.org/2000/svg">
<path opacity="0.5" d="M1088 937L889 937V1012L1088 1012V937Z" stroke="#0500FF"/>
<path opacity="0.5" d="M1080.89 854L897.122 854L889 938L1088 938L1080.89 854Z" stroke="#0500FF"/>
<path opacity="0.5" d="M896.107 1058L1079.88 1058L1088 1011L889 1011L896.107 1058Z" stroke="#0500FF"/>
<path opacity="0.5" d="M518 214L434 237V259L518 295V214Z" stroke="#0500FF"/>
<path opacity="0.5" d="M598 200L518 214.5V295.5L598 321V200Z" stroke="#0500FF"/>
<path opacity="0.5" d="M696 160.5L598 199.862V320.533L696 335V160.5Z" stroke="#0500FF"/>
<path opacity="0.5" d="M696 335L751 335L751 150L696 160.5L696 335Z" stroke="#0500FF"/>
<path opacity="0.5" d="M814 335L751 335L751 150L814 160.5L814 335Z" stroke="#0500FF"/>
<path opacity="0.5" d="M979 313L814 335L814 161L979 233.5L979 313Z" stroke="#0500FF"/>
<path opacity="0.5" d="M979 313L1430 325L1430 316L979 233.5L979 313Z" stroke="#0500FF"/>
<path opacity="0.5" d="M532 2565L448 2600V2611.11L532 2648V2565Z" stroke="#0500FF"/>
<path opacity="0.5" d="M616 2536L532 2564.5V2648L616 2677V2536Z" stroke="#0500FF"/>
<path opacity="0.5" d="M750 2508L616 2536V2677L750 2703V2508Z" stroke="#0500FF"/>
<path opacity="0.5" d="M750 2703L932 2696L932 2516L750 2508L750 2703Z" stroke="#0500FF"/>
<path opacity="0.5" d="M1181 2577.5L932 2516L932 2696L1181 2633.5V2577.5Z" stroke="#0500FF"/>
<path opacity="0.5" d="M1181 2633.5L1637 2607.5L1637 2602.5L1181 2577.5L1181 2633.5Z" stroke="#0500FF"/>
<rect x="84.5" y="753.5" width="1809" height="18" stroke="#81CF03"/>
<rect x="523.5" y="573.5" width="246" height="18" stroke="#81CF03"/>
</svg>
