<svg width="2000" height="3000" viewBox="0 0 2000 3000" fill="none" xmlns="http://www.w3.org/2000/svg">
<path opacity="0.5" d="M1023.62 1766.5L1004.5 1717L972.001 1717L951.875 1766.5L1023.62 1766.5Z" stroke="#0500FF"/>
<path opacity="0.5" d="M1004.5 1717L992 1699L984.5 1699L972 1717L1004.5 1717Z" stroke="#0500FF"/>
<path opacity="0.5" d="M1063 1876L1023.61 1766.5L951.888 1766.5L913.5 1876L1063 1876Z" stroke="#0500FF"/>
<path opacity="0.5" d="M1063 1876L1078.5 1948L897.5 1948L913 1876L1063 1876Z" stroke="#0500FF"/>
<path opacity="0.5" d="M1088.5 2069L1078 1948L897 1948L888 2069L1088.5 2069Z" stroke="#0500FF"/>
<path opacity="0.5" d="M888 2069L897 2176L1077 2176L1088.5 2069L888 2069Z" stroke="#0500FF"/>
<path opacity="0.5" d="M1024.5 2376L1077 2176L897 2176L952.5 2376L1024.5 2376Z" stroke="#0500FF"/>
<path opacity="0.5" d="M1024.5 2376L1016 2432L960 2432L952.5 2376L1024.5 2376Z" stroke="#0500FF"/>
<path opacity="0.5" d="M973.5 2766L986.5 2882.5L989 2882.5L1003 2766L973.5 2766Z" stroke="#0500FF"/>
<path opacity="0.5" d="M969 2674L973.5 2766L1003 2766L1008 2674L969 2674Z" stroke="#0500FF"/>
<path opacity="0.5" d="M960 2432L969.5 2674L1006.5 2674L1016 2432L960 2432Z" stroke="#0500FF"/>
</svg>
