<svg width="2000" height="3000" viewBox="0 0 2000 3000" fill="none" xmlns="http://www.w3.org/2000/svg">
<path d="M484.001 223L434.001 241.5L434 254.5L484.001 282V223Z" stroke="#0500FF"/>
<path d="M484.001 223L518 214.5V295.5L484.001 282V223Z" stroke="#0500FF"/>
<path d="M596 201.5L518 214.5V295.5L596 319V201.5Z" stroke="#0500FF"/>
<path d="M695.999 160.5L596 201.5V319L695.999 335V160.5Z" stroke="#0500FF"/>
<path d="M696 335L751 335L751 150L696 160.5L696 335Z" stroke="#0500FF"/>
<path d="M814 335L751 335L751 150L814 161L814 335Z" stroke="#0500FF"/>
<path d="M979 313L814 335L814 161L979 233.5L979 313Z" stroke="#0500FF"/>
<path d="M979 312.934L1114 310L1114 266.999L979 232.999L979 312.934Z" stroke="#0500FF"/>
<path d="M1427 325.887L1114 310.064L1114 267.028L1427 308.498L1427 325.887Z" stroke="#0500FF"/>
<path d="M1427 326L1441.5 317.5L1441.5 311.5L1427 308.5L1427 326Z" stroke="#0500FF"/>
</svg>
