<svg width="2000" height="3000" viewBox="0 0 2000 3000" fill="none" xmlns="http://www.w3.org/2000/svg">
<path d="M518 214L434 237V259L518 295V214Z" stroke="#0500FF" stroke-width="2"/>
<path d="M598 200L518 214.5V295.5L598 321V200Z" stroke="#0500FF" stroke-width="2"/>
<path d="M696 160.5L598 199.862V320.533L696 335V160.5Z" stroke="#0500FF" stroke-width="2"/>
<path d="M696 335L751 335L751 150L696 160.5L696 335Z" stroke="#0500FF" stroke-width="2"/>
<path d="M814 335L751 335L751 150L814 160.5L814 335Z" stroke="#0500FF" stroke-width="2"/>
<path d="M979 313L814 335L814 161L979 233.5L979 313Z" stroke="#0500FF" stroke-width="2"/>
<path d="M979 313L1430 325L1430 316L979 233.5L979 313Z" stroke="#0500FF" stroke-width="2"/>
</svg>
